<svg id="visual" viewBox="0 0 960 540" width="960" height="540" xmlns="http://www.w3.org/2000/svg" xmlns:xlink="http://www.w3.org/1999/xlink" version="1.1"><rect x="0" y="0" width="960" height="540" fill="#27374D"></rect><path d="M0 341L60 286L120 326L180 256L240 333L300 324L360 303L420 282L480 290L540 376L600 361L660 310L720 268L780 296L840 290L900 261L960 365L960 541L900 541L840 541L780 541L720 541L660 541L600 541L540 541L480 541L420 541L360 541L300 541L240 541L180 541L120 541L60 541L0 541Z" fill="#27374d"></path><path d="M0 350L60 396L120 359L180 333L240 376L300 294L360 319L420 366L480 351L540 397L600 379L660 317L720 321L780 331L840 379L900 316L960 333L960 541L900 541L840 541L780 541L720 541L660 541L600 541L540 541L480 541L420 541L360 541L300 541L240 541L180 541L120 541L60 541L0 541Z" fill="#6c7b8c"></path><path d="M0 357L60 351L120 349L180 403L240 374L300 386L360 410L420 375L480 415L540 378L600 407L660 350L720 353L780 399L840 369L900 382L960 392L960 541L900 541L840 541L780 541L720 541L660 541L600 541L540 541L480 541L420 541L360 541L300 541L240 541L180 541L120 541L60 541L0 541Z" fill="#bbc6d0"></path><path d="M0 409L60 442L120 383L180 434L240 407L300 403L360 448L420 424L480 396L540 415L600 417L660 426L720 443L780 398L840 435L900 446L960 405L960 541L900 541L840 541L780 541L720 541L660 541L600 541L540 541L480 541L420 541L360 541L300 541L240 541L180 541L120 541L60 541L0 541Z" fill="#dde6ed"></path><path d="M0 471L60 449L120 425L180 416L240 404L300 416L360 439L420 472L480 440L540 425L600 473L660 444L720 406L780 453L840 464L900 402L960 432L960 541L900 541L840 541L780 541L720 541L660 541L600 541L540 541L480 541L420 541L360 541L300 541L240 541L180 541L120 541L60 541L0 541Z" fill="#bbc6d0"></path><path d="M0 487L60 477L120 441L180 488L240 458L300 454L360 473L420 470L480 491L540 451L600 468L660 494L720 494L780 456L840 473L900 444L960 498L960 541L900 541L840 541L780 541L720 541L660 541L600 541L540 541L480 541L420 541L360 541L300 541L240 541L180 541L120 541L60 541L0 541Z" fill="#6c7b8c"></path><path d="M0 500L60 500L120 479L180 479L240 510L300 516L360 483L420 495L480 495L540 504L600 476L660 495L720 475L780 476L840 483L900 476L960 475L960 541L900 541L840 541L780 541L720 541L660 541L600 541L540 541L480 541L420 541L360 541L300 541L240 541L180 541L120 541L60 541L0 541Z" fill="#27374d"></path></svg>